HIERARCHY
ROOT bip01_pelvis
{
	OFFSET -0.141780 111.560104 -53.453648
	CHANNELS 6 Xposition Yposition Zposition Xrotation Yrotation Zrotation
	JOINT bip01_l_thigh
	{
		OFFSET -12.581326 0.000023 0.838757
		CHANNELS 3 Xrotation Yrotation Zrotation
		JOINT bip01_l_calf
		{
			OFFSET -5.405050 -43.060066 12.568863
			CHANNELS 3 Xrotation Yrotation Zrotation
			JOINT bip01_l_foot
			{
				OFFSET -6.378141 -25.639313 -28.000755
				CHANNELS 3 Xrotation Yrotation Zrotation
				JOINT bip01_l_toe0
				{
					OFFSET -1.312191 -43.345943 -5.410645
					CHANNELS 3 Xrotation Yrotation Zrotation
					End Site
					{
						OFFSET 0.668312 -0.011212 0.027710
					}
				}
			}
		}
	}
	JOINT bip01_r_thigh
	{
		OFFSET 12.581315 -0.000053 -0.838764
		CHANNELS 3 Xrotation Yrotation Zrotation
		JOINT bip01_r_calf
		{
			OFFSET 7.025425 -43.060097 11.740181
			CHANNELS 3 Xrotation Yrotation Zrotation
			JOINT bip01_r_foot
			{
				OFFSET 2.604660 -25.639347 -28.599602
				CHANNELS 3 Xrotation Yrotation Zrotation
				JOINT bip01_r_toe0
				{
					OFFSET 0.582125 -43.345810 -5.536972
					CHANNELS 3 Xrotation Yrotation Zrotation
					End Site
					{
						OFFSET 0.658720 0.011207 -0.116180
					}
				}
			}
		}
	}
	JOINT bip01_spine
	{
		OFFSET 1.130847 -10.257637 16.963192
		CHANNELS 3 Xrotation Yrotation Zrotation
		JOINT bip01_spine1
		{
			OFFSET 2.125925 -0.408882 31.891911
			CHANNELS 3 Xrotation Yrotation Zrotation
			JOINT bip01_spine2
			{
				OFFSET 3.104555 -1.436646 46.949230
				CHANNELS 3 Xrotation Yrotation Zrotation
				JOINT bip01_neck
				{
					OFFSET 1.831697 12.621635 29.209831
					CHANNELS 3 Xrotation Yrotation Zrotation
					JOINT bip01_head
					{
						OFFSET 0.933028 14.642593 15.308128
						CHANNELS 3 Xrotation Yrotation Zrotation
						JOINT bip01_ponytail1
						{
							OFFSET 12.881245 30.917107 3.869919
							CHANNELS 3 Xrotation Yrotation Zrotation
							End Site
							{
								OFFSET -0.556711 0.315430 0.195229
							}
						}
						JOINT bip01_ponytail2
						{
							OFFSET -12.308470 31.163292 5.588448
							CHANNELS 3 Xrotation Yrotation Zrotation
							End Site
							{
								OFFSET -0.577699 -0.315430 -0.119598
							}
						}
						JOINT bone01
						{
							OFFSET -0.035753 10.693596 0.910164
							CHANNELS 3 Xrotation Yrotation Zrotation
							End Site
							{
								OFFSET -0.667642 0.000000 0.042305
							}
						}
						JOINT bone03
						{
							OFFSET -2.859410 10.011330 9.974838
							CHANNELS 3 Xrotation Yrotation Zrotation
							End Site
							{
								OFFSET 0.042301 0.000000 0.667641
							}
						}
						JOINT bone05
						{
							OFFSET 4.144515 10.011345 9.531006
							CHANNELS 3 Xrotation Yrotation Zrotation
							End Site
							{
								OFFSET 0.042301 0.000000 0.667641
							}
						}
					}
					JOINT bip01_l_clavicle
					{
						OFFSET -6.817371 -1.737137 -4.124603
						CHANNELS 3 Xrotation Yrotation Zrotation
						JOINT bip01_l_upperarm
						{
							OFFSET -13.915021 0.119522 7.203735
							CHANNELS 3 Xrotation Yrotation Zrotation
							JOINT bip01_l_forearm
							{
								OFFSET 0.900768 -49.360191 -24.691143
								CHANNELS 3 Xrotation Yrotation Zrotation
								JOINT bip01_l_hand
								{
									OFFSET 5.453267 -54.192162 0.261513
									CHANNELS 3 Xrotation Yrotation Zrotation
									End Site
									{
										OFFSET -0.048247 0.019447 -0.666954
									}
								}
							}
						}
					}
					JOINT bip01_r_clavicle
					{
						OFFSET 6.291911 -1.668388 -4.989365
						CHANNELS 3 Xrotation Yrotation Zrotation
						JOINT bip01_r_upperarm
						{
							OFFSET 14.738678 0.269737 5.313599
							CHANNELS 3 Xrotation Yrotation Zrotation
							JOINT bip01_r_forearm
							{
								OFFSET -4.170362 -49.360199 -24.353104
								CHANNELS 3 Xrotation Yrotation Zrotation
								JOINT bip01_r_hand
								{
									OFFSET -5.370342 -54.192158 0.983074
									CHANNELS 3 Xrotation Yrotation Zrotation
									End Site
									{
										OFFSET 0.040714 -0.019448 0.667458
									}
								}
							}
						}
					}
				}
			}
		}
	}
	JOINT bip01_tail
	{
		OFFSET -1.140240 5.694984 -17.420544
		CHANNELS 3 Xrotation Yrotation Zrotation
		JOINT bip01_tail1
		{
			OFFSET -0.799711 -16.655739 -11.995483
			CHANNELS 3 Xrotation Yrotation Zrotation
			JOINT bip01_tail2
			{
				OFFSET -0.560408 -49.655807 -8.404999
				CHANNELS 3 Xrotation Yrotation Zrotation
				End Site
				{
					OFFSET -0.667499 0.000004 0.044495
				}
			}
		}
	}
}
MOTION
Frames: 7
Frame Time: 0.041667
-1.938141 115.221497 -58.192520 -0.961447 4.443358 -0.037160 11.855281 -18.886284 9.536483 -12.206752 1.717310 1.273003 -18.299871 4.249403 -1.822684 20.580986 0.068441 -2.356997 5.532331 9.621822 -1.551993 -4.698514 -0.717860 0.178807 -4.567803 -12.641943 0.814319 11.296720 2.438455 -5.059352 10.590120 -8.780573 0.584966 -12.357033 1.394162 3.181720 2.959894 2.815894 -3.649644 -7.614313 -2.680784 0.161200 9.010357 -16.558576 -3.116876 -0.247416 51.118915 -11.568955 -20.513543 -51.342402 -4.748241 -4.480510 -0.455553 0.989825 0.004078 0.003789 -0.004770 -0.002728 0.000244 0.003163 14.735343 -40.870216 9.575110 8.669969 55.093979 -13.530210 -10.041625 -1.141993 1.544370 6.183794 -15.342422 -3.857932 15.718101 32.380674 -15.781852 10.293163 -40.001638 21.943902 -20.185325 2.049984 -0.217584 13.077667 6.888837 2.154171 3.479480 -9.384140 8.340496 -1.251356 1.715076 -1.134232 -30.318892 4.281977 0.959353 
-1.918897 115.241432 -58.342781 -0.910469 4.329162 -0.035509 11.691410 -18.804998 9.503472 -12.206754 1.717310 1.273003 -18.248293 4.269793 -1.831639 20.588161 0.079199 -2.355732 5.436413 9.688461 -1.582424 -4.730523 -0.722799 0.179824 -4.539888 -12.622435 0.843769 11.296721 2.438456 -5.059351 10.544707 -8.662341 0.567167 -12.351179 1.355185 3.130287 3.008471 2.779440 -3.652302 -7.625572 -2.476368 -0.082717 9.103997 -16.878273 -2.946421 0.276363 50.628176 -11.469954 -20.756468 -52.196326 -4.977800 -4.480510 -0.455555 0.989825 0.004080 0.003787 -0.004769 -0.002727 0.000243 0.003163 15.003610 -41.004593 9.959265 8.626946 55.371357 -13.452565 -10.218610 -1.164527 1.569762 6.352605 -15.518055 -3.925680 15.547003 32.253605 -15.437372 10.330660 -40.183864 22.045489 -20.371357 2.069023 -0.216211 13.247282 7.130900 2.166212 3.478914 -9.070729 7.853786 -1.356677 1.733088 -0.954010 -30.698357 3.461597 1.603537 
-1.909275 115.291252 -58.432934 -0.837770 4.182096 -0.025638 11.493816 -18.702318 9.462411 -12.226176 1.719811 1.275308 -18.167603 4.292691 -1.838559 20.592257 0.092740 -2.358553 5.313317 9.817932 -1.636008 -4.778621 -0.730218 0.181348 -4.475356 -12.594905 0.877561 11.296720 2.438452 -5.059352 10.473277 -8.502345 0.542030 -12.342647 1.295635 3.047690 3.061276 2.736062 -3.629609 -7.644398 -2.257771 -0.336997 9.216434 -17.179860 -2.762088 0.788425 50.031361 -11.349732 -20.897015 -53.044386 -5.084390 -4.480512 -0.455560 0.989821 0.004074 0.003789 -0.004770 -0.002729 0.000245 0.003163 15.279497 -41.151354 10.359930 8.554729 55.657962 -13.353699 -10.399624 -1.187663 1.595656 6.537482 -15.689706 -3.987589 15.374486 32.109054 -15.081092 10.344183 -40.337642 22.138006 -20.566055 2.088943 -0.214708 13.423355 7.351713 2.171310 3.478836 -8.720529 7.326501 -1.469224 1.749836 -0.762152 -31.061600 2.578603 2.270705 
-1.890032 115.311188 -58.583214 -0.741379 4.012181 -0.029632 11.262079 -18.570637 9.405852 -12.256590 1.723725 1.278922 -18.060572 4.317574 -1.846250 20.599823 0.110252 -2.358669 5.173370 9.957337 -1.692748 -4.841756 -0.739960 0.183340 -4.384224 -12.564706 0.924267 11.296721 2.438454 -5.059352 10.376805 -8.300485 0.513379 -12.334754 1.214961 2.937653 3.121969 2.691125 -3.593149 -7.658979 -2.028144 -0.592790 9.336765 -17.453690 -2.566746 1.282423 49.335160 -11.202857 -20.937955 -53.875395 -5.066572 -4.480506 -0.455555 0.989823 0.004077 0.003791 -0.004770 -0.002728 0.000246 0.003161 15.564183 -41.302881 10.761660 8.451828 55.959774 -13.230784 -10.576929 -1.210398 1.620953 6.725213 -15.856347 -4.046527 15.200007 31.954104 -14.720642 10.338233 -40.464264 22.229149 -20.760008 2.108783 -0.213142 13.600825 7.550702 2.175774 3.477060 -8.330879 6.761422 -1.585436 1.763468 -0.563600 -31.408458 1.644717 2.952027 
-1.870788 115.380959 -58.763531 -0.625490 3.819000 -0.029628 11.002302 -18.420032 9.342978 -12.306481 1.730143 1.284850 -17.929472 4.337839 -1.853247 20.607126 0.123706 -2.361521 5.006981 10.106785 -1.761513 -4.916500 -0.751498 0.185687 -4.261653 -12.529196 0.979322 11.296721 2.438454 -5.059352 10.258323 -8.063838 0.478576 -12.321073 1.116810 2.800271 3.187069 2.641813 -3.538688 -7.672998 -1.790638 -0.848391 9.464287 -17.702746 -2.362628 1.754462 48.547933 -11.033849 -20.864225 -54.687119 -4.918572 -4.480510 -0.455556 0.989824 0.004079 0.003789 -0.004772 -0.002726 0.000245 0.003160 15.859952 -41.465740 11.181677 8.316565 56.271675 -13.077043 -10.751358 -1.232842 1.645771 6.925779 -16.017234 -4.102861 15.023701 31.789599 -14.355673 10.306964 -40.558633 22.307468 -20.954257 2.128647 -0.211508 13.782882 7.732117 2.171454 3.474145 -7.908015 6.170293 -1.700953 1.778425 -0.360424 -31.735740 0.678433 3.635351 
-1.861167 115.430786 -58.883751 -0.492897 3.599385 -0.038603 10.715256 -18.242283 9.271635 -12.367253 1.737953 1.292082 -17.775870 4.356916 -1.859729 20.614757 0.141267 -2.361666 4.820619 10.296756 -1.838403 -5.007128 -0.765488 0.188507 -4.117337 -12.489092 1.042373 11.296721 2.438454 -5.059352 10.122496 -7.791956 0.444848 -12.307922 1.000521 2.639287 3.256552 2.584642 -3.465641 -7.686267 -1.543804 -1.100667 9.599310 -17.919319 -2.148817 2.204689 47.671237 -10.837870 -20.694278 -55.471460 -4.655958 -4.480510 -0.455554 0.989824 0.004077 0.003788 -0.004770 -0.002728 0.000243 0.003161 16.149856 -41.632657 11.598048 8.155441 56.592851 -12.906551 -10.918034 -1.254367 1.669427 7.130670 -16.173526 -4.150681 14.849907 31.619391 -13.991743 10.247050 -40.620402 22.372595 -21.148738 2.148529 -0.209804 13.966308 7.891407 2.166667 3.474280 -7.459749 5.553589 -1.820388 1.788456 -0.155119 -32.043443 -0.315118 4.320559 
-1.832301 115.510529 -59.034012 -0.341209 3.359141 -0.027863 10.407082 -18.063081 9.197142 -12.439850 1.747279 1.300732 -17.604527 4.378689 -1.866140 20.627552 0.160902 -2.366013 4.622530 10.496120 -1.923487 -5.110149 -0.781404 0.191686 -3.949101 -12.448798 1.111127 11.296721 2.438454 -5.059351 9.965030 -7.488864 0.405742 -12.292508 0.865765 2.458146 3.333289 2.525520 -3.382332 -7.691049 -1.292237 -1.351602 9.735234 -18.099740 -1.924078 2.637634 46.722421 -10.619809 -20.407072 -56.227248 -4.263815 -4.480515 -0.455554 0.989824 0.004076 0.003790 -0.004770 -0.002730 0.000246 0.003160 16.437354 -41.800840 12.012165 7.965554 56.924470 -12.712383 -11.077030 -1.274960 1.691931 7.340403 -16.325122 -4.198148 14.673709 31.438326 -13.632908 10.166171 -40.651257 22.432472 -21.340197 2.168096 -0.208061 14.148758 8.027049 2.154126 3.468439 -6.985071 4.922482 -1.939872 1.799779 0.054864 -32.329109 -1.324771 4.994370 
